<?xml version="1.0" standalone="no"?>
<!DOCTYPE svg PUBLIC "-//W3C//DTD SVG 20010904//EN"
 "http://www.w3.org/TR/2001/REC-SVG-20010904/DTD/svg10.dtd">
<svg version="1.0" xmlns="http://www.w3.org/2000/svg"
 width="1080.000000pt" height="1080.000000pt" viewBox="0 0 1080.000000 1080.000000"
 preserveAspectRatio="xMidYMid meet">
<metadata>
Created by potrace 1.14, written by Peter Selinger 2001-2017
</metadata>
<g transform="translate(0.000000,1080.000000) scale(0.100000,-0.100000)"
fill="#000000" stroke="none">
<path d="M5025 10779 c-1204 -95 -2260 -533 -3165 -1313 -147 -126 -435 -417
-561 -566 -561 -663 -947 -1422 -1143 -2246 -59 -250 -82 -387 -131 -799 -3
-27 -7 -207 -9 -400 -4 -368 4 -507 44 -800 197 -1414 946 -2689 2091 -3557
832 -631 1816 -999 2879 -1077 145 -11 601 -11 740 0 833 63 1581 288 2285
686 619 350 1183 841 1620 1408 634 823 1005 1785 1100 2850 18 211 13 772 -9
970 -66 585 -193 1081 -403 1575 -291 683 -754 1343 -1282 1827 -185 171 -191
176 -345 297 -774 610 -1707 999 -2671 1115 -93 11 -192 23 -220 26 -89 10
-707 13 -820 4z"/>
</g>
</svg>
